<?xml version="1.0" encoding="UTF-8" standalone="no"?>
<!-- Created with Inkscape (http://www.inkscape.org/) -->

<svg
   xmlns:dc="http://purl.org/dc/elements/1.1/"
   xmlns:cc="http://creativecommons.org/ns#"
   xmlns:rdf="http://www.w3.org/1999/02/22-rdf-syntax-ns#"
   xmlns:svg="http://www.w3.org/2000/svg"
   xmlns="http://www.w3.org/2000/svg"
   xmlns:sodipodi="http://sodipodi.sourceforge.net/DTD/sodipodi-0.dtd"
   xmlns:inkscape="http://www.inkscape.org/namespaces/inkscape"
   version="1.1"
   id="svg91"
   width="63.98835"
   height="59.530777"
   viewBox="0 0 63.98835 59.530777"
   sodipodi:docname="adv-icon-6.svg"
   inkscape:version="0.92.4 (unknown)">
  <path
     style="stroke-width:0.31999999"
     d="m 23.52,59.2 c -0.108774,-0.176 -0.454272,-0.32 -0.767774,-0.32 -0.313502,0 -1.454207,-0.44184 -2.534899,-0.981869 C 16.753467,56.167219 14.944528,53.33401 13.688323,47.67223 12.950644,44.347478 12.453954,43.53593 11.403495,43.93903 11.036703,44.079782 10.88,44.532371 10.88,45.450995 10.88,47.969526 10.81706,48 5.614914,48 3.0835,48 0.784567,47.9126 0.506172,47.805763 0.05866,47.634038 0,46.379114 0,36.97713 v -10.6344 l 0.815057,-0.371365 c 0.852767,-0.388547 8.007575,-0.526788 8.930693,-0.172554 0.284952,0.109346 0.721381,0.685346 0.969844,1.28 l 0.451749,1.081189 4.096328,0.01124 c 3.407037,0.0094 5.441915,0.242176 8.256329,0.944674 0.870165,0.217199 1.12,-0.06405 1.12,-1.260836 0,-1.090968 0.176026,-1.40638 1.28,-2.293557 l 1.28,-1.028636 v -3.722443 c 0,-2.468568 0.129348,-3.851792 0.384,-4.106444 0.518622,-0.518622 5.753379,-0.518622 6.272,0 0.2112,0.2112 0.384,0.7872 0.384,1.28 0,0.511271 0.174605,0.896 0.40664,0.896 0.223654,0 1.975715,-1.152 3.893469,-2.56 1.917757,-1.408 3.732032,-2.56 4.031728,-2.56 0.457104,0 12.76903,8.75359 16.718118,11.886325 l 1.209955,0.959835 -0.08996,3.725484 -0.08995,3.725482 -1.04,0.297728 -1.04,0.297728 v 6.989101 6.989101 l 1.463869,0.368608 c 1.327776,0.334336 2.617117,1.30808 3.896131,2.942461 0.517802,0.661667 0.517802,3.616141 0,4.271152 C 62.43495,57.686778 61.12495,58.88 60.672,58.88 c -0.2816,0 -0.512,0.144 -0.512,0.32 0,0.441034 -36.367426,0.441034 -36.64,0 z m 36.935446,-3.068445 c 1.30842,-1.100963 1.378231,-2.849827 0.159501,-3.995776 -0.812489,-0.763968 -0.929181,-0.777264 -7.664928,-0.873293 l -6.839878,-0.09751 -0.826407,1.30911 c -0.454521,0.72001 -1.289302,1.591354 -1.855068,1.936317 -1.236125,0.753702 -3.703453,0.834896 -4.999796,0.164531 C 37.005197,53.83872 23.231327,42.596368 22.914498,41.911965 c -0.360003,-0.777667 0.331329,-1.696467 1.121075,-1.489943 0.308154,0.08059 3.818031,2.790596 7.799726,6.022247 7.857239,6.377149 8.839975,6.93088 10.3308,5.820969 1.048403,-0.780528 1.520986,-1.955958 1.238656,-3.080841 -0.139606,-0.55624 -2.998736,-3.260954 -8.765968,-8.292528 C 24.639343,32.167933 24.339007,31.933868 22.24,31.22901 20.45692,30.630242 13.907604,30.181019 12.047807,30.529918 L 10.8643,30.751946 10.95215,35.935974 11.04,41.12 l 1.28,0.171219 c 0.704,0.09417 1.474693,0.291747 1.712651,0.439063 0.652043,0.40367 1.240042,2.03542 1.989974,5.522358 0.797422,3.707747 1.844351,5.804621 3.724387,7.459494 2.476505,2.179908 2.608534,2.193104 22.228434,2.222052 l 17.49545,0.02582 0.98455,-0.828445 z M 19.830555,39.508618 C 19.249127,38.808042 19.810544,37.92 20.834876,37.92 21.471681,37.92 21.6,38.081002 21.6,38.88 c 0,0.7296 -0.16032,0.982906 -0.668002,1.055443 -0.367401,0.05249 -0.86305,-0.139577 -1.101443,-0.426825 z m 35.838187,8.832419 C 56.173206,47.398435 56.111248,32.902486 55.600002,32.258346 55.059632,31.577515 42.96457,22.72 42.575251,22.72 42.135725,22.72 29.12,32.32193 29.12,32.646176 c 0,0.446653 6.631072,6.073824 7.157408,6.073824 0.364464,0 0.513802,-0.428224 0.585869,-1.68 l 0.09672,-1.68 h 5.6 5.6 l 0.08695,6.375587 c 0.05514,4.043034 0.215818,6.530861 0.439181,6.8 0.248935,0.299946 1.275904,0.424413 3.501792,0.424413 2.786371,0 3.187757,-0.07138 3.480819,-0.618963 z M 46.08,42.754237 c 0,-4.196455 -0.07494,-4.954522 -0.506173,-5.12 -0.657453,-0.252288 -5.370201,-0.252288 -6.027654,0 C 39.165414,37.780346 39.04,38.286637 39.04,39.677616 v 1.849146 l 2.48,2.153654 c 1.364,1.184512 2.814438,2.568989 3.223194,3.076621 0.408755,0.507629 0.876755,0.922963 1.04,0.922963 0.169555,0 0.296806,-2.111859 0.296806,-4.925763 z M 7.933564,45.48783 C 8.25361,45.28479 8.350035,43.359846 8.359986,36.975152 8.367286,32.312912 8.243775,28.595775 8.076068,28.428067 7.912841,28.264841 6.640951,28.173751 5.249646,28.225646 L 2.72,28.319996 2.63445,36.634742 c -0.04706,4.57311 -0.01557,8.49711 0.06996,8.72 0.177269,0.461958 4.535913,0.572886 5.22916,0.133084 z m 21.1252,-16.012746 c 2.131736,-1.669164 12.194439,-8.958225 12.855242,-9.311876 0.867984,-0.464532 0.90752,-0.440404 8.759447,5.34537 3.763382,2.773087 6.880467,4.854782 7.127504,4.759985 C 58.421882,30.030291 58.346189,28.352808 57.68,27.588014 56.916672,26.711704 43.496202,16.897164 42.815248,16.717255 42.203024,16.555505 27.390975,27.200764 27.072129,28.031664 c -0.256325,0.667971 -0.244305,1.889493 0.0212,2.155003 0.373891,0.373891 0.75567,0.235669 1.965431,-0.711583 z m 1.87347,-7.547619 C 32.237574,21.013169 32.121386,18.56 30.772741,18.56 29.868177,18.56 29.44,19.23168 29.44,20.650667 c 0,1.833805 0.313738,2.102249 1.492234,1.276798 z M 28.030522,13.242359 C 26.819067,12.429656 25.2114,11.148242 24.457928,10.394771 21.700951,7.637793 21.702664,3.9175686 24.462128,1.3312148 25.702824,0.16831766 26.068547,0 27.354583,0 c 1.029858,0 1.678576,0.19228978 2.159137,0.64 0.377828,0.352 0.920654,0.64 1.20628,0.64 0.285626,0 0.828452,-0.288 1.20628,-0.64 C 32.397482,0.20100769 33.055558,0 34.021568,0 c 1.187146,0 1.636502,0.20084763 2.86119,1.2788606 2.778532,2.4457624 2.796189,6.3516648 0.04117,9.1066844 C 35.365249,11.944222 31.362516,14.72 30.673547,14.72 c -0.24221,0 -1.431572,-0.664939 -2.643027,-1.477641 z m 5.31102,-2.922419 c 1.305684,-0.9832837 2.29545,-2.0444251 2.802852,-3.0049746 L 36.928787,5.8300509 36.327027,4.4955821 C 35.336986,2.3000631 33.696691,1.9160386 32.16,3.52 31.010094,4.7202429 30.598111,4.7202429 29.23111,3.52 27.470385,1.974063 25.68522,2.44256 24.959672,4.6409923 24.278306,6.705553 25.30885,8.3829981 28.768012,10.839933 29.542419,11.38997 30.434113,11.84 30.749554,11.84 c 0.315441,0 1.481835,-0.684027 2.591988,-1.52006 z"
     id="path184"
     inkscape:connector-curvature="0" />
</svg>
