<?xml version="1.0" encoding="UTF-8" standalone="no"?>
<!-- Created with Inkscape (http://www.inkscape.org/) -->

<svg
   xmlns:dc="http://purl.org/dc/elements/1.1/"
   xmlns:cc="http://creativecommons.org/ns#"
   xmlns:rdf="http://www.w3.org/1999/02/22-rdf-syntax-ns#"
   xmlns:svg="http://www.w3.org/2000/svg"
   xmlns="http://www.w3.org/2000/svg"
   xmlns:sodipodi="http://sodipodi.sourceforge.net/DTD/sodipodi-0.dtd"
   xmlns:inkscape="http://www.inkscape.org/namespaces/inkscape"
   version="1.1"
   id="svg61"
   width="64.000008"
   height="64"
   viewBox="0 0 64.000008 64"
   sodipodi:docname="adv-icon-5.svg"
   inkscape:version="0.92.4 (unknown)">
  <path
     style="stroke-width:0.31999999"
     d="M 25.15424,63.493827 C 25.04741,63.215434 24.96,59.14832 24.96,54.455795 v -8.531859 l 9.518,-9.521968 C 39.7129,31.164885 44.1474,26.88 44.33244,26.88 c 0.18504,0 1.265943,0.934367 2.402,2.076372 1.136058,1.142004 2.209562,2.030823 2.385562,1.975153 0.176,-0.05567 0.392,-0.880954 0.48,-1.833965 0.138573,-1.500692 0.277853,-1.788977 1.04,-2.152615 0.484,-0.230927 0.884954,-0.59201 0.891008,-0.802406 0.08611,-2.991979 -0.01104,-13.44923 -0.126,-13.564198 -0.238902,-0.238902 -13.95343,-0.216587 -14.19311,0.02309 -0.11659,0.11659 0.39621,0.83169 1.13957,1.589111 1.36543,1.391274 1.51024,2.188458 0.47003,2.587622 C 38.14992,17.035878 33.28,12.289283 33.28,11.377 c 0,-0.947733 4.88829,-5.7743898 5.5795,-5.5091488 1.10651,0.4246074 0.9714,1.2533898 -0.40316,2.4732125 C 37.72135,8.993305 37.12,9.6873914 37.12,9.8834784 37.12,10.135744 39.39811,10.24 44.910405,10.24 c 7.108624,0 7.836234,0.05064 8.314064,0.578637 0.448701,0.495808 0.535962,1.675327 0.609597,8.24 l 0.08594,7.661363 2.544838,0.09463 c 1.399658,0.05204 2.731658,0.249677 2.96,0.439182 0.317354,0.26338 0.415162,2.014627 0.415162,7.433406 v 7.088851 l 2.08,2.163485 2.08,2.163485 V 55.051517 64 H 44.674243 C 27.34687,64 25.32839,63.94766 25.15424,63.493827 Z M 35.788,61.798912 c 0.2354,-0.14921 0.3794,-0.615005 0.32,-1.035101 -0.10712,-0.757581 -0.14375,-0.764537 -4.49196,-0.852736 -4.07494,-0.08266 -4.40761,-0.04475 -4.71937,0.537776 -0.25532,0.477079 -0.21549,0.746611 0.16682,1.128925 0.40192,0.40192 1.28057,0.501245 4.39937,0.497325 2.14343,-0.0026 4.08974,-0.126983 4.32514,-0.276189 z m 14.362028,0.02346 c 0.468633,-0.29777 0.628563,-15.651792 0.16783,-16.112525 -0.156602,-0.156605 -2.938186,-0.245389 -6.181293,-0.197297 L 38.24,45.6 38.1541,53.44 c -0.0776,7.086989 -0.0333,7.878419 0.46116,8.24 0.6155,0.450058 10.851655,0.576406 11.53474,0.142381 z m 11.428028,-0.166765 c 0.408612,-0.298784 0.514228,-0.632809 0.356858,-1.128637 -0.218278,-0.687731 -0.329856,-0.702176 -4.755222,-0.615616 -4.067476,0.07956 -4.543008,0.147578 -4.642119,0.66401 -0.244352,1.273251 0.456941,1.504627 4.560451,1.504627 2.734135,0 4.073117,-0.126838 4.480032,-0.424384 z M 35.65383,57.725763 C 36.09827,57.555216 36.16,56.467251 36.16,48.804947 c 0,-7.012841 0.0864,-8.798275 0.43988,-9.091651 0.30902,-0.256467 2.71271,-0.33952 8.080004,-0.279181 l 7.640118,0.08588 0.08524,8.773526 c 0.05654,5.819338 0.204416,8.917127 0.43918,9.2 0.475396,0.572816 8.28377,0.610282 8.851578,0.04247 0.266682,-0.266682 0.384,-1.949021 0.384,-5.506595 v -5.122587 l -8.714179,-8.735347 c -4.7928,-4.804442 -8.831693,-8.696175 -8.975322,-8.648299 -0.143629,0.04788 -4.142249,3.964014 -8.885819,8.702526 L 26.88,46.841168 v 5.326083 c 0,2.929344 0.096,5.422083 0.21334,5.539415 0.26666,0.266662 7.87114,0.283625 8.56049,0.0191 z M 50.376511,43.017776 c 0.381632,-0.381632 0.421933,-0.65224 0.167849,-1.127005 -0.316022,-0.590489 -0.662649,-0.620006 -6.315232,-0.537776 -5.621818,0.08178 -5.987998,0.124157 -6.099788,0.705853 -0.23867,1.241907 0.71999,1.461152 6.388966,1.461152 4.439536,0 5.441917,-0.08593 5.858205,-0.502224 z m 7.543491,-8.950563 c 0,-5.734209 0.271382,-5.366876 -3.84377,-5.202771 l -2.39623,0.09556 -0.09271,2.255196 -0.09271,2.255198 2.872909,2.975926 c 1.580099,1.636762 3.025818,2.881424 3.21271,2.76592 0.215967,-0.133478 0.339801,-2.008467 0.339801,-5.145027 z M 16.47885,57.598726 c -0.5667,-0.626195 -0.54838,-0.671673 0.77909,-1.934467 1.98439,-1.887705 1.68611,-2.148656 -2.26825,-1.984403 -4.91502,0.204157 -4.5564,0.889837 -4.74969,-9.081338 L 10.08,36.344496 9.05399,35.69225 C 8.48968,35.33351 6.93126,34.342493 5.59082,33.489987 3.11649,31.916336 1.28248,29.716265 0.78169,27.720981 0.6656,27.258442 0.44223,26.88 0.28531,26.88 0.12427,26.88 0,22.486305 0,16.79208 V 6.7041594 L 0.82083,6.3920797 C 1.27229,6.2204358 2.50083,6.08 3.55093,6.08 7.06301,6.08 11.34331,4.1047005 13.83917,1.3321198 14.49871,0.5994539 15.25175,0 15.51258,0 15.77341,0 16.57681,0.640062 17.29791,1.4223599 19.94347,4.2924602 23.88559,6.08 27.56955,6.08 30.95891,6.08 30.72,5.2778035 30.72,16.658285 v 9.915767 l -0.91953,1.992974 c -0.51557,1.117441 -1.53477,2.580946 -2.32,3.331372 C 26.02076,33.293408 16.35177,39.04 15.46428,39.04 c -0.27981,0 -0.98233,-0.292698 -1.56117,-0.650438 -0.72079,-0.445476 -1.12148,-0.538714 -1.27156,-0.295885 -0.20709,0.335078 -0.29098,13.080566 -0.0873,13.270973 0.0527,0.04926 1.38962,0.140374 2.97096,0.20246 2.4778,0.09729 2.88934,0.03961 2.97773,-0.417305 0.0598,-0.309351 -0.37135,-0.891661 -1.03517,-1.397981 -1.23238,-0.939987 -1.52432,-2.174998 -0.59815,-2.530403 0.38831,-0.149008 1.20197,0.446931 2.9024,2.125763 1.29955,1.28305 2.5061,2.592829 2.68121,2.910618 0.26502,0.48094 -0.12377,1.0308 -2.31916,3.28 C 18.67342,57.024013 17.39038,58.24 17.27288,58.24 c -0.1175,0 -0.4748,-0.288573 -0.79399,-0.641274 z m 3.76881,-23.242163 c 5.43695,-3.138886 5.80298,-3.40602 6.94877,-5.071377 1.64544,-2.391554 1.92414,-4.226525 1.91867,-12.632418 -0.003,-4.143022 -0.11069,-7.6989203 -0.24,-7.9019952 C 28.7458,8.5476979 27.41275,8.1697866 25.91277,7.9109702 22.50867,7.3236045 20.24998,6.364079 17.66306,4.406369 16.55374,3.5668659 15.58936,2.88 15.52,2.88 15.4506,2.88 14.47703,3.573975 13.35641,4.422167 10.86547,6.3075504 7.92198,7.5244973 4.80931,7.9558458 3.51817,8.1347706 2.3362,8.4699018 2.18271,8.7005818 2.02923,8.9312618 1.94333,12.936 1.99183,17.6 l 0.0882,8.48 0.86917,1.769751 c 0.47804,0.973364 1.27004,2.153304 1.76,2.62209 1.14962,1.099941 9.9942,6.3031 10.73849,6.317317 0.3122,0.006 2.4722,-1.088704 4.8,-2.432595 z M 13.23,31.682791 C 7.06912,30.389585 2.90821,23.669792 4.62072,17.778962 7.04789,9.4298147 16.79978,6.6146477 23.1185,12.439042 c 3.78448,3.488407 4.69163,9.005779 2.23167,13.573246 -2.24207,4.162929 -7.5257,6.634909 -12.12017,5.670503 z m 4.71192,-2.116874 c 5.61214,-1.659936 8.42045,-7.668711 5.99535,-12.827884 -1.57988,-3.361047 -4.65059,-5.287551 -8.46501,-5.310773 -5.31818,-0.03238 -9.21494,3.86346 -9.21494,9.21274 0,4.443202 2.91364,8.070936 7.34268,9.142275 1.55369,0.375821 2.49907,0.328713 4.34192,-0.216358 z m -4.46583,-4.409152 c -1.44169,-1.468967 -1.64745,-2.493372 -0.54353,-2.705968 0.33286,-0.0641 0.73436,0.114243 0.89222,0.396326 0.15787,0.282082 0.5405,0.512877 0.85031,0.512877 0.44315,0 0.79102,-0.784804 1.6311,-3.679826 1.11277,-3.83473 1.48469,-4.472432 2.40294,-4.120068 0.41018,0.157402 0.51033,0.464259 0.39346,1.205521 -0.1956,1.240543 -2.52999,8.851309 -2.88147,9.394373 -0.4753,0.734374 -1.35537,0.412732 -2.74503,-1.003235 z"
     id="path226"
     inkscape:connector-curvature="0" />
</svg>
