<?xml version="1.0" encoding="UTF-8" standalone="no"?>
<!-- Created with Inkscape (http://www.inkscape.org/) -->

<svg
   xmlns:dc="http://purl.org/dc/elements/1.1/"
   xmlns:cc="http://creativecommons.org/ns#"
   xmlns:rdf="http://www.w3.org/1999/02/22-rdf-syntax-ns#"
   xmlns:svg="http://www.w3.org/2000/svg"
   xmlns="http://www.w3.org/2000/svg"
   xmlns:sodipodi="http://sodipodi.sourceforge.net/DTD/sodipodi-0.dtd"
   xmlns:inkscape="http://www.inkscape.org/namespaces/inkscape"
   version="1.1"
   id="svg111"
   width="63.938679"
   height="63.84"
   viewBox="0 0 63.938679 63.84"
   sodipodi:docname="adv-icon-2.svg"
   inkscape:version="0.92.4 (unknown)">
  <path
     style="stroke-width:0.31999999"
     d="m 0.3195141,63.364074 c -0.217241,-0.261757 -0.310457,-0.696196 -0.207147,-0.965418 0.163055,-0.424912 1.275464,-0.478224 8.431563,-0.404074 7.7775349,0.08059 8.2502689,0.119444 8.3594489,0.687072 0.06365,0.330912 -0.07844,0.724708 -0.315762,0.875101 -0.237317,0.150394 -3.905854,0.275651 -8.1523029,0.278346 -6.447405,0.0041 -7.785963,-0.0736 -8.1158,-0.471027 z m 19.2407109,0.04906 c -0.269717,-0.324989 -0.352434,-2.401271 -0.290573,-7.293725 l 0.08648,-6.839405 0.886064,-0.10184 0.886063,-0.10184 -0.08606,7.297635 c -0.0752,6.37616 -0.15039,7.310003 -0.595492,7.395565 -0.280184,0.05386 -0.6791,-0.106515 -0.886478,-0.35639 z m 4.329239,0.213536 c -0.117333,-0.117332 -0.213333,-0.549332 -0.213333,-0.96 V 61.92 h 7.210043 c 6.140706,0 7.237592,0.0718 7.3958,0.484074 0.102167,0.266243 0.008,0.698243 -0.209225,0.96 C 37.745875,63.757936 36.507385,63.84 30.890282,63.84 c -3.733116,0 -6.883484,-0.096 -7.000818,-0.213334 z m 22.186667,-0.135936 c -0.792,-0.153533 -2.468832,-0.786125 -3.726291,-1.40576 -8.853693,-4.362813 -10.860689,-16.446746 -3.905194,-23.51282 4.605501,-4.67872 11.415063,-5.791094 17.443837,-2.849536 2.307552,1.125901 5.37255,4.311354 6.531699,6.7884 5.185216,11.080551 -4.339558,23.306832 -16.344051,20.979716 z m 6.479635,-2.261847 c 1.884195,-0.41232 4.897322,-2.325891 6.269651,-3.981721 6.367178,-7.682516 2.144695,-19.185402 -7.715708,-21.019136 -6.762196,-1.257562 -13.504141,3.671324 -14.718436,10.760323 -0.907331,5.296979 2.027975,10.92511 6.96569,13.355936 3.053597,1.503283 5.358643,1.724944 9.198803,0.884598 z M 47.95296,56.56 C 47.498832,56.076 46.751629,55.424947 46.292515,55.113216 45.819206,54.79185 45.290793,53.989162 45.07216,53.25943 c -0.328832,-1.097552 -0.310525,-1.362076 0.124374,-1.796976 0.679811,-0.679811 1.385651,-0.360825 1.663351,0.751703 0.323603,1.296429 1.096224,2.025843 2.145843,2.025843 1.849632,0 2.926768,-2.434406 1.606003,-3.629683 -0.321418,-0.29088 -1.266067,-0.656221 -2.099219,-0.811872 -1.800051,-0.336285 -2.956483,-1.324007 -3.440122,-2.93825 -0.469837,-1.568173 0.07771,-3.217075 1.425101,-4.291603 0.560253,-0.446797 1.311706,-1.099507 1.669894,-1.450474 0.810391,-0.794044 1.032708,-0.795286 1.875069,-0.01046 0.370522,0.34522 1.213677,1.12282 1.873677,1.728 1.018592,0.933991 1.2,1.301882 1.2,2.433584 0,1.265674 -0.04461,1.328125 -0.88,1.232 -0.68152,-0.07842 -0.902115,-0.29223 -0.978045,-0.94799 -0.208361,-1.799437 -2.38191,-2.57553 -3.653065,-1.304374 -1.253901,1.253897 -0.439719,3.59111 1.250985,3.59111 1.192099,0 2.806957,0.798909 3.566397,1.764378 1.441165,1.832144 0.604854,5.344595 -1.477955,6.207324 -0.532058,0.220384 -1.039607,0.676909 -1.127888,1.0145 -0.224938,0.860156 -0.896803,0.764185 -1.8636,-0.266202 z M 0.1123671,58.881344 c -0.10331,-0.269222 -0.01009,-0.703661 0.207147,-0.965418 0.329837,-0.39743 1.668395,-0.475116 8.1158,-0.471027 4.2464489,0.0026 7.9149859,0.127952 8.1523029,0.278346 0.237317,0.150393 0.37941,0.544189 0.315762,0.875101 -0.10918,0.567628 -0.581914,0.606486 -8.3594489,0.687072 -7.156099,0.07415 -8.268508,0.02083 -8.431563,-0.404074 z M 23.734101,58.488032 23.836131,57.6 l 4.48,-0.092 c 5.328186,-0.109424 6.000128,0.0033 5.860774,0.983315 -0.09873,0.69432 -0.206656,0.710474 -5.322804,0.79672 l -5.22203,0.08803 z M 0.3206151,54.725402 c -0.323798,-0.390151 -0.323798,-0.580653 0,-0.970804 0.344096,-0.414611 1.574906,-0.472947 8.439183,-0.4 l 8.0363329,0.0854 v 0.8 0.8 l -8.0363329,0.0854 c -6.864277,0.07295 -8.095087,0.01462 -8.439183,-0.4 z m 23.4749229,0.0042 c -0.103334,-0.269287 -0.103334,-0.709933 0,-0.97922 0.157648,-0.410822 0.845437,-0.475187 4.274237,-0.4 L 32.156131,53.44 v 0.8 0.8 l -4.086356,0.08961 c -3.4288,0.07519 -4.116589,0.01082 -4.274237,-0.4 z M 0.3195141,50.564074 c -0.217241,-0.261757 -0.310457,-0.696196 -0.207147,-0.965418 0.163055,-0.424912 1.275464,-0.478224 8.431563,-0.404074 7.7775349,0.08059 8.2502689,0.119444 8.3594489,0.687072 0.06365,0.330912 -0.07844,0.724708 -0.315762,0.875101 -0.237317,0.150394 -3.905854,0.275651 -8.1523029,0.278346 -6.447405,0.0041 -7.785963,-0.0736 -8.1158,-0.471027 z m 23.5699499,0.262592 c -0.117333,-0.117332 -0.213333,-0.549332 -0.213333,-0.96 0,-0.7425 0.02238,-0.746666 4.010043,-0.746666 3.28429,0 4.043662,0.08761 4.1958,0.484074 0.433475,1.129619 -0.460681,1.435926 -4.191692,1.435926 -1.973116,0 -3.683484,-0.096 -3.800818,-0.213334 z M 4.4761311,41.44 v -5.162509 l 0.88,0.101255 0.88,0.101254 v 4.96 4.96 l -0.88,0.101254 -0.88,0.101255 z m 6.3999999,0.02125 V 36.32 h 5.12 5.12 v 5.141254 5.141255 l -0.88,-0.101255 C 19.544941,46.421724 19.334406,46.21119 19.254876,45.52 l -0.101255,-0.88 h -3.15749 -3.15749 l -0.101255,0.88 c -0.07953,0.69119 -0.290065,0.901725 -0.981255,0.981254 l -0.88,0.101255 v -5.141255 z m 8.32,-0.98125 v -2.24 h -3.2 -3.2 v 2.24 2.24 h 3.2 3.2 z m 6.540772,5.665283 c -0.08753,-0.228093 -0.119008,-2.496093 -0.06996,-5.04 L 25.756131,36.48 h 5.115618 c 4.752523,0 5.123841,0.0427 5.231486,0.601654 0.187187,0.971988 -0.526096,1.148269 -4.667104,1.153447 l -3.92,0.0049 v 4.16 4.16 h -0.810043 c -0.445524,0 -0.881657,-0.186621 -0.969185,-0.414718 z M 0.2094651,36.746666 C -0.0570899,36.480112 -0.0755269,9.6790819 0.1903681,8.9861718 0.3582471,8.548687 1.2267201,8.48 6.5903681,8.48 H 12.796131 V 7.381255 c 0,-0.9607507 -0.110521,-1.1114617 -0.88,-1.2 L 11.036131,6.08 V 3.04 0 h 4.96 4.96 v 3.04 3.04 l -0.88,0.101255 c -0.769479,0.088538 -0.88,0.2392493 -0.88,1.2 0,1.062753 0.04065,1.098745 1.240818,1.098745 1.48767,0 2.261157,0.6905658 1.628001,1.453473 -0.309759,0.373236 -0.923567,0.470698 -2.519183,0.4 L 17.436131,10.24 17.344121,7.28 17.252111,4.32 h 0.972009 c 0.920676,0 0.972008,-0.067597 0.972008,-1.28 V 1.76 h -3.2 -3.2 v 1.28 c 0,1.2124029 0.05133,1.28 0.972008,1.28 h 0.972009 l -0.09201,2.96 -0.09201,2.96 -6.2399999,0.16 -6.24,0.16 -0.08404,11.44 c -0.04622,6.292 0.02637,11.44 0.161319,11.44 0.134949,0 6.796174,-6.552 14.8027229,-14.56 8.006549,-8.008 14.774549,-14.56 15.04,-14.56 0.26545,0 7.03345,6.552 15.04,14.56 8.00655,8.008 14.667776,14.56 14.802723,14.56 0.134947,0 0.207543,-5.148 0.161319,-11.44 l -0.08404,-11.44 -9.804614,-0.08457 c -8.210148,-0.07082 -9.868778,-0.16189 -10.199181,-0.56 -0.312931,-0.37706 -0.312147,-0.5747403 0.0038,-0.955427 0.567018,-0.683216 21.15913,-0.7240058 21.724285,-0.043032 0.260704,0.3141261 0.339187,4.294829 0.279184,14.16 l -0.08347,13.723032 -0.769942,0.1088 c -0.644573,0.09108 -3.236887,-2.357731 -15.92,-15.038736 L 31.996131,6.7225264 16.874881,21.841263 C 2.3954251,36.318314 1.0153971,37.552598 0.2094651,36.746666 Z M 30.115009,24.892829 c -1.614594,-0.795406 -2.343418,-2.158419 -2.177885,-4.072981 0.114033,-1.318912 0.327818,-1.755372 1.293114,-2.64 C 30.218867,17.273837 30.620337,17.12 31.996131,17.12 c 1.375795,0 1.777264,0.153837 2.765894,1.059848 0.965296,0.884628 1.179079,1.321088 1.293114,2.64 0.167443,1.936667 -0.577504,3.301797 -2.22959,4.085763 -1.409498,0.668851 -2.333352,0.665669 -3.71054,-0.01278 z m 3.561122,-2.396087 c 0.739101,-0.854774 0.706672,-1.583968 -0.117002,-2.631102 -0.889875,-1.131292 -2.344172,-1.036341 -3.273359,0.213716 -1.648782,2.218148 1.575056,4.5168 3.390361,2.417386 z"
     id="path121"
     inkscape:connector-curvature="0" />
</svg>
