<?xml version="1.0" encoding="UTF-8" standalone="no"?>
<!-- Created with Inkscape (http://www.inkscape.org/) -->

<svg
   xmlns:dc="http://purl.org/dc/elements/1.1/"
   xmlns:cc="http://creativecommons.org/ns#"
   xmlns:rdf="http://www.w3.org/1999/02/22-rdf-syntax-ns#"
   xmlns:svg="http://www.w3.org/2000/svg"
   xmlns="http://www.w3.org/2000/svg"
   xmlns:sodipodi="http://sodipodi.sourceforge.net/DTD/sodipodi-0.dtd"
   xmlns:inkscape="http://www.inkscape.org/namespaces/inkscape"
   version="1.1"
   id="svg81"
   width="63.938675"
   height="63.797974"
   viewBox="0 0 63.938675 63.797974"
   sodipodi:docname="adv-icon-1.svg"
   inkscape:version="0.92.4 (unknown)">
  <path
     style="stroke-width:0.31999999"
     d="M 2.6889915,63.394333 C 1.4866645,62.85965 0.43177752,61.575005 0.15307452,60.30608 -0.29135248,58.282618 1.2192675,55.967021 3.2552255,55.550867 l 1.060906,-0.216851 0.08508,-8.879002 c 0.07221,-7.535225 0.157575,-8.906819 0.564076,-9.062809 0.263445,-0.101091 0.693158,-0.0061 0.954916,0.211177 0.400362,0.332272 0.475925,1.808349 0.475925,9.296916 0,4.89606 0.128249,8.981193 0.284997,9.07807 0.156749,0.09687 0.518855,-0.180774 0.80468,-0.616998 1.158761,-1.768493 4.2011145,-2.553416 6.3755425,-1.64488 1.120828,0.46831 2.774781,2.213538 2.774781,2.927909 0,0.239411 0.536727,0.941664 1.192727,1.560563 1.55516,1.467207 1.67552,3.231869 0.313408,4.595037 l -0.879319,0.88 -6.793408,0.07666 C 5.2709145,63.815319 3.4443925,63.73026 2.6889885,63.394333 Z M 16.337169,61.588741 c 0.913527,-0.488905 0.764297,-1.497152 -0.303305,-2.049232 -0.643073,-0.332544 -0.98361,-0.8039 -1.124899,-1.557036 -0.661365,-3.52538 -5.4206845,-3.579236 -6.3039835,-0.07134 -0.2939,1.167184 -0.501274,1.448864 -1.06666,1.448864 -0.408756,0 -0.998218,-0.400883 -1.411591,-0.96 -0.54036,-0.730877 -0.962947,-0.959999 -1.770583,-0.959999 -2.506742,0 -3.040261,3.223315 -0.691126,4.175513 0.963,0.390339 11.9360805,0.367158 12.6721475,-0.02678 z m 5.498963,2.039328 c -0.277516,-0.11198 -0.4,-1.024636 -0.4,-2.980499 0,-3.194575 0.01046,-3.207571 2.581799,-3.207571 h 1.569456 l 0.08437,-10.48 0.08437,-10.48 h 6.24 6.24 l 0.08437,10.48 0.08438,10.48 1.675625,0.0049 c 1.942752,0.0057 2.584823,0.311341 2.422941,1.153446 -0.109242,0.568276 -0.639149,0.610532 -9.551485,0.761655 L 23.516127,59.52 l -0.09813,1.912317 c -0.108442,2.113337 -0.486297,2.637827 -1.581873,2.195753 z m 14.56929,-10.425356 -0.08929,-4.237287 -0.96,-0.165856 c -0.764061,-0.132003 -0.96,-0.327856 -0.96,-0.959571 0,-0.631715 0.195939,-0.827568 0.96,-0.959571 l 0.96,-0.165855 0.08929,-4.237288 0.08929,-4.237285 h -4.489286 -4.48929 v 9.6 9.599999 h 4.48929 4.489286 z M 25.926091,63.371999 c -0.220858,-0.266118 -0.318794,-0.699533 -0.217637,-0.963146 0.156611,-0.408118 1.59316,-0.491884 9.673755,-0.564073 l 9.48983,-0.08478 0.07513,-1.239232 c 0.05806,-0.957694 0.34024,-1.489355 1.242045,-2.340154 0.641804,-0.605508 1.166918,-1.296804 1.166918,-1.536215 0,-0.714371 1.653952,-2.4596 2.774781,-2.92791 2.174429,-0.908535 5.216781,-0.123613 6.375542,1.64488 0.285824,0.436224 0.647933,0.713872 0.804679,0.616998 0.156748,-0.09688 0.284998,-4.18201 0.284998,-9.07807 0,-7.488567 0.07556,-8.964644 0.475926,-9.296916 0.261757,-0.217241 0.691469,-0.312268 0.954916,-0.211177 0.406499,0.15599 0.491868,1.527584 0.564076,9.062809 l 0.08508,8.879002 1.115395,0.227997 c 1.377792,0.281632 2.778589,1.787456 3.060451,3.28992 0.258266,1.376665 -0.567513,3.208096 -1.879062,4.167417 -0.882667,0.64562 -1.298411,0.66265 -18.274241,0.748576 -15.184227,0.07685 -17.421574,0.02701 -17.772582,-0.395927 z m 35.221903,-2.30089 c 1.412336,-1.413875 0.489149,-3.63111 -1.511878,-3.63111 -0.807635,0 -1.230224,0.229123 -1.770582,0.96 -0.413373,0.559117 -1.002836,0.96 -1.411591,0.96 -0.565389,0 -0.772761,-0.28168 -1.066662,-1.448864 -0.883299,-3.507898 -5.642618,-3.454042 -6.303981,0.07134 -0.14129,0.753136 -0.481827,1.224492 -1.124899,1.557036 -1.041341,0.5385 -1.217219,1.53144 -0.362269,2.045216 0.353168,0.212231 2.83215,0.306746 6.711862,0.255901 5.814727,-0.07621 6.189575,-0.118381 6.84,-0.769517 z M 9.0046455,50.756754 c -0.739975,-0.468944 -0.283893,-1.457433 0.755394,-1.637206 l 0.9560925,-0.165382 0.08676,-6.317085 0.08676,-6.317081 h 5.10647 5.10647 l 0.08676,6.317081 0.08676,6.317085 0.956092,0.165382 c 1.039288,0.179773 1.495369,1.168262 0.755394,1.637206 -0.237307,0.150394 -3.383476,0.273443 -6.991476,0.273443 -3.608,0 -6.7541685,-0.123049 -6.9914865,-0.273443 z M 19.196132,46.879999 v -2.24 h -3.2 -3.2 v 2.24 2.24 h 3.2 3.2 z m 0,-6.4 v -2.24 h -3.2 -3.2 v 2.24 2.24 h 3.2 3.2 z m 21.808515,10.276755 c -0.739974,-0.468944 -0.283894,-1.457433 0.755392,-1.637206 l 0.956093,-0.165382 0.08676,-6.317085 0.08676,-6.317081 h 5.10647 5.10647 l 0.08676,6.317081 0.08676,6.317085 0.956093,0.165382 c 1.039286,0.179773 1.495366,1.168262 0.755392,1.637206 -0.237305,0.150394 -3.383475,0.273443 -6.991475,0.273443 -3.608,0 -6.75417,-0.123049 -6.991485,-0.273443 z m 10.191485,-3.876755 v -2.24 h -3.2 -3.2 v 2.24 2.24 h 3.2 3.2 z m 0,-6.4 v -2.24 h -3.2 -3.2 v 2.24 2.24 h 3.2 3.2 z M 0.20946552,36.746665 c -0.266555,-0.266554 -0.284992,-27.0675835 -0.0191,-27.7604935 0.167878,-0.437485 1.03635198,-0.506172 6.39999998,-0.506172 h 6.2057635 v -1.098745 c 0,-0.96075 -0.110521,-1.111461 -0.88,-1.2 l -0.88,-0.101255 v -3.04 V 0 h 4.96 4.96 v 3.0399995 3.04 l -0.88,0.101255 c -0.769479,0.08854 -0.88,0.23925 -0.88,1.2 0,1.062753 0.04065,1.098745 1.240818,1.098745 1.48767,0 2.261157,0.690566 1.628001,1.453473 -0.309759,0.3732355 -0.923567,0.4706975 -2.519183,0.3999995 l -2.109636,-0.09347 -0.09201,-2.9599995 -0.09201,-2.96 h 0.972009 c 0.920676,0 0.972008,-0.0676 0.972008,-1.28 V 1.76 h -3.2 -3.2 v 1.2799995 c 0,1.212403 0.05133,1.28 0.972008,1.28 h 0.972009 l -0.09201,2.96 -0.09201,2.9600005 -6.2400005,0.16 -6.24,0.16 -0.08404,11.44 c -0.04622,6.292 0.02637,11.439999 0.161319,11.439999 0.134948,0 6.796174,-6.552 14.8027235,-14.56 8.006549,-8.008 14.774549,-14.5599995 15.04,-14.5599995 0.26545,0 7.03345,6.5519995 15.04,14.5599995 8.00655,8.008 14.667776,14.56 14.802723,14.56 0.134947,0 0.207543,-5.147999 0.161319,-11.439999 l -0.08404,-11.44 -9.804614,-0.08457 c -8.210148,-0.07082 -9.868778,-0.16189 -10.199181,-0.5600005 -0.312931,-0.37706 -0.312147,-0.57474 0.0038,-0.955427 0.567018,-0.683216 21.15913,-0.724005 21.724285,-0.04303 0.260704,0.314126 0.339187,4.2948295 0.279184,14.1600005 l -0.08347,13.723031 -0.769942,0.108801 c -0.644573,0.09108 -3.236887,-2.357732 -15.92,-15.038736 L 31.996132,6.7225265 16.874882,21.841262 C 2.3954245,36.318314 1.0153965,37.552597 0.20946552,36.746665 Z M 30.11501,24.892828 c -1.614594,-0.795406 -2.343418,-2.158418 -2.177885,-4.07298 0.114033,-1.318913 0.327818,-1.755373 1.293114,-2.640001 0.988629,-0.90601 1.390099,-1.059847 2.765893,-1.059847 1.375795,0 1.777264,0.153837 2.765894,1.059847 0.965296,0.884628 1.179079,1.321088 1.293114,2.640001 0.167443,1.936667 -0.577504,3.301797 -2.22959,4.085763 -1.409498,0.66885 -2.333352,0.665669 -3.71054,-0.01278 z m 3.561122,-2.396087 c 0.739101,-0.854774 0.706672,-1.583968 -0.117002,-2.631102 -0.889875,-1.131291 -2.344172,-1.036341 -3.273359,0.213717 -1.648782,2.218147 1.575056,4.5168 3.390361,2.417385 z"
     id="path163"
     inkscape:connector-curvature="0" />
</svg>
