<?xml version="1.0" encoding="UTF-8" standalone="no"?>
<!-- Created with Inkscape (http://www.inkscape.org/) -->

<svg
   xmlns:dc="http://purl.org/dc/elements/1.1/"
   xmlns:cc="http://creativecommons.org/ns#"
   xmlns:rdf="http://www.w3.org/1999/02/22-rdf-syntax-ns#"
   xmlns:svg="http://www.w3.org/2000/svg"
   xmlns="http://www.w3.org/2000/svg"
   xmlns:sodipodi="http://sodipodi.sourceforge.net/DTD/sodipodi-0.dtd"
   xmlns:inkscape="http://www.inkscape.org/namespaces/inkscape"
   version="1.1"
   id="svg101"
   width="63.834808"
   height="64"
   viewBox="0 0 63.834808 64"
   sodipodi:docname="adv-icon-4.svg"
   inkscape:version="0.92.4 (unknown)">
  <path
     style="stroke-width:0.31999999"
     d="m 2.7788107,63.616 c -0.28887,-0.288864 -0.384,-4.525274 -0.384,-17.099725 V 29.800549 l -1.00773,-0.100274 c -0.55425,-0.05515 -1.16556,-0.352355 -1.35847,-0.660452 -0.30217,-0.482586 1.62125,-2.532547 13.8863803,-14.8 C 21.745401,6.4079203 28.297845,0 28.475962,0 c 0.178117,0 3.777837,3.4562384 7.999376,7.6805296 6.586784,6.5910734 7.625782,7.7598884 7.324819,8.2400004 -0.820688,1.309203 -1.456857,0.845635 -8.443171,-6.1523991 L 28.47916,2.8787672 16.396981,14.957804 C 9.7517907,21.601275 4.3148107,27.145553 4.3148107,27.278421 c 0,0.132869 0.9729,0.241579 2.162,0.241579 h 2.162 l 9.5960003,-9.6 c 6.18189,-6.184464 9.823575,-9.6 10.235645,-9.6 0.408819,0 3.496258,2.854899 8.555596,7.911198 L 44.942,24.142396 46.154583,22.95834 c 0.953789,-0.93135 2.220006,-1.558529 5.932893,-2.938664 2.596172,-0.965035 4.922259,-1.677115 5.169081,-1.582401 0.924032,0.354585 0.789898,1.288258 -0.817053,5.687324 L 54.790055,28.64 49.792432,33.690259 c -4.109811,4.153095 -5.13974,5.034224 -5.797622,4.96 -0.58568,-0.06608 -0.82423,-0.304579 -0.890442,-0.890259 -0.07388,-0.653523 0.731284,-1.619027 4.397517,-5.273232 l 4.487955,-4.473233 -1.831664,-1.850975 -1.83166,-1.850976 -11.442068,11.438755 -11.442067,11.438755 1.823918,1.843149 1.823916,1.843149 4.198832,-4.157696 C 35.598407,44.430963 37.69914,42.56 37.957344,42.56 c 0.614234,0 1.237466,0.638275 1.237466,1.267334 0,0.655065 -11.057369,11.638292 -12.384109,12.301068 -2.89316,1.445287 -6.4637,-0.506531 -6.98649,-3.819125 -0.23687,-1.500923 0.16255,-2.682977 1.46019,-4.32139 l 0.95041,-1.199987 v -7.702691 c 0,-7.28792 0.0333,-7.72053 0.61896,-8.033951 0.35266,-0.188739 2.821,-0.331259 5.737145,-0.331259 4.226224,0 5.205814,0.08763 5.621036,0.502857 0.631546,0.631546 0.631546,0.92274 0,1.554285 -0.409004,0.409008 -1.334716,0.502858 -4.959999,0.502858 h -4.457142 v 5.519306 5.519302 l 9.198348,-9.198346 9.198345,-9.198348 -7.356025,-7.361244 -7.356025,-7.361244 -9.203113,9.200287 -9.20312,9.200287 -2.6392103,0.16 -2.6392,0.16 -0.083,15.76 -0.083,15.76 h 9.5390103 c 6.99257,0 9.64153,0.102509 9.92302,0.384 0.54862,0.548621 0.47438,1.752845 -0.12217,1.981763 C 23.690271,63.912594 18.895071,64 13.312671,64 5.8450207,64 3.0613607,63.898524 2.7788407,63.615999 Z m 23.8636613,-10.275757 0.727662,-0.666198 -1.847663,-1.871344 -1.84766,-1.871344 -0.72,0.832166 c -1.26705,1.464435 -0.81341,3.60264 0.90903,4.284669 0.95811,0.379376 1.83503,0.155952 2.778631,-0.707949 z M 54.082944,23.655506 c 0.295389,-0.889332 0.472864,-1.681176 0.394384,-1.759653 -0.120502,-0.120503 -1.236844,0.20631 -3.416892,1.000304 -0.331002,0.120553 -0.12138,0.506508 0.772,1.421412 0.674508,0.690758 1.335968,1.188195 1.46991,1.105414 0.133939,-0.08278 0.48521,-0.878146 0.780598,-1.767477 z M 26.45881,63.616 c -0.2112,-0.2112 -0.383999,-0.607677 -0.383999,-0.881062 0,-0.648292 35.848722,-36.494938 36.497052,-36.494938 1.250342,0 1.262947,0.186104 1.262947,18.645037 0,11.711145 -0.114253,18.090521 -0.331258,18.496 C 63.182016,63.981827 62.638992,64 45.007552,64 31.306086,64 26.748457,63.90565 26.45881,63.616 Z m 34.816,-17.76799 V 30.256018 l -2.382499,2.366596 -2.382496,2.366599 0.782496,0.929945 c 0.872256,1.036618 0.965913,1.529428 0.398499,2.096842 -0.589232,0.589232 -1.259898,0.461683 -2.173181,-0.413299 l -0.832198,-0.797299 -1.567043,1.590966 -1.56704,1.590963 0.728089,0.775018 c 1.574503,1.675981 -0.0863,3.336781 -1.762278,1.762278 l -0.775018,-0.728089 -1.590963,1.56704 -1.590966,1.567043 0.797299,0.832198 c 0.874982,0.913283 1.002531,1.583949 0.413299,2.173181 -0.589232,0.589232 -1.259898,0.461683 -2.173181,-0.413299 l -0.832198,-0.797299 -1.551968,1.57566 -1.551965,1.575658 0.845507,1.004826 c 0.675562,0.80286 0.779155,1.128803 0.515395,1.621641 -0.438515,0.819373 -1.530976,0.781559 -2.453299,-0.08492 l -0.74696,-0.701731 -1.590963,1.56704 -1.590966,1.567043 0.797299,0.832198 c 0.874982,0.913282 1.002531,1.583948 0.413299,2.17318 -0.567414,0.567414 -1.060224,0.473757 -2.096842,-0.398499 L 34.824023,56.675004 32.457424,59.057501 30.090828,61.44 H 45.68282 61.27481 Z M 41.280404,56.977626 c -0.110576,-0.348397 -0.05942,-0.89089 0.113676,-1.20554 0.564026,-1.025251 14.300749,-14.492227 14.777367,-14.487187 1.240531,0.01312 1.277705,0.273763 1.189184,8.337584 L 57.274811,57.44 49.378133,57.52554 c -7.62721,0.08262 -7.90354,0.06392 -8.097729,-0.547914 z M 55.19481,50.399999 c 0,-2.728 -0.03774,-4.96 -0.08387,-4.96 -0.04613,0 -2.312387,2.232 -5.036128,4.96 l -4.952256,4.96 h 5.036126 5.036128 z M 7.7281407,47.466665 c -0.40272,-0.402724 -0.24379,-11.468202 0.17067,-11.882666 0.53897,-0.538966 10.8530303,-0.538966 11.3920003,0 0.26973,0.269728 0.384,2.068835 0.384,6.045763 0,4.867591 -0.071,5.689008 -0.50617,5.856 -0.69066,0.265031 -11.1738703,0.247533 -11.4405003,-0.0191 z m 9.6368203,-5.946666 0.0902,-3.76 h -3.85016 -3.8501503 v 3.850158 3.850152 l 3.7600003,-0.09015 3.76,-0.09016 z m 22.815411,-0.0492 c -0.657012,-0.791651 -0.119725,-1.845254 0.881907,-1.729405 0.712013,0.08235 0.852531,0.256839 0.852531,1.058605 0,0.7296 -0.16032,0.982906 -0.668003,1.055443 -0.367399,0.05249 -0.847296,-0.120598 -1.066435,-0.384646 z M 25.914811,27.523996 c -2.95572,-1.945189 -2.69455,-6.336561 0.479999,-8.070824 2.154382,-1.176946 5.334222,-0.07036 6.276205,2.18412 0.897507,2.148035 0.383923,4.108409 -1.489264,5.684591 -1.275593,1.073341 -3.796139,1.170065 -5.26694,0.202113 z M 29.865714,25.36 c 1.020618,-0.863616 1.160903,-2.0407 0.363958,-3.05385 -0.935392,-1.189159 -2.565885,-1.199897 -3.491636,-0.02299 -0.870965,1.107252 -0.837335,1.891828 0.122228,2.851391 0.92269,0.922689 2.078954,1.009426 3.00545,0.225454 z M 44.967568,19.375372 C 44.299866,18.570839 44.697223,17.76 45.759194,17.76 c 0.763754,0 0.977299,0.153353 1.063613,0.763811 0.16647,1.177363 -1.101738,1.759475 -1.855239,0.851561 z"
     id="path142"
     inkscape:connector-curvature="0" />
</svg>
