<?xml version="1.0" encoding="UTF-8" standalone="no"?>
<!-- Created with Inkscape (http://www.inkscape.org/) -->

<svg
   xmlns:dc="http://purl.org/dc/elements/1.1/"
   xmlns:cc="http://creativecommons.org/ns#"
   xmlns:rdf="http://www.w3.org/1999/02/22-rdf-syntax-ns#"
   xmlns:svg="http://www.w3.org/2000/svg"
   xmlns="http://www.w3.org/2000/svg"
   xmlns:sodipodi="http://sodipodi.sourceforge.net/DTD/sodipodi-0.dtd"
   xmlns:inkscape="http://www.inkscape.org/namespaces/inkscape"
   version="1.1"
   id="svg71"
   width="64"
   height="70.714012"
   viewBox="0 0 64 70.714012"
   sodipodi:docname="adv-icon-3.svg"
   inkscape:version="0.92.4 (unknown)">
  <path
     style="stroke-width:0.31999999"
     d="M 0.4,70.241335 C 0.085643,69.884286 0,62.871521 0,37.487745 0,8.3302302 0.04924,5.1695796 0.506172,4.9942366 0.784567,4.8874065 1.586034,4.8000001 2.28721,4.8000001 4.332611,4.8000001 4.8,4.3861249 4.8,2.5749132 4.8,1.7155002 4.88741,0.78456663 4.994237,0.50617203 5.168912,0.05097544 7.552211,0 28.659736,0 h 23.471262 l 0.186576,1.04 c 0.102615,0.572 0.14514,6.6560001 0.0945,13.52 l -0.09207,12.48 -0.763811,0.107998 c -0.420096,0.0594 -0.889325,-0.0846 -1.04273,-0.32 C 50.360055,26.592599 50.24881,21.115347 50.26625,14.656326 50.28369,8.1973057 50.20442,2.7613057 50.090094,2.5763262 49.773428,2.0639519 7.617299,2.1107052 7.104004,2.6240002 6.527409,3.2005961 6.641379,4.0954038 7.338967,4.4687414 7.740624,4.6837017 13.27506,4.8000003 23.102968,4.8000003 h 15.145039 l 4.734154,4.7420596 4.734153,4.7420601 0.02557,5.0382 c 0.02624,5.164495 -0.113004,5.797639 -1.227904,5.58374 -0.537414,-0.103107 -0.602489,-0.516824 -0.683235,-4.343699 -0.08101,-3.839271 -0.147801,-4.261077 -0.723568,-4.569218 -0.35824,-0.191724 -2.14455,-0.312999 -4.104176,-0.278639 -1.908422,0.03346 -3.634816,-0.04111 -3.836432,-0.165717 -0.243122,-0.150265 -0.366565,-1.545634 -0.366565,-4.143672 0,-2.619978 -0.127162,-4.0442747 -0.384,-4.3011147 -0.55367,-0.553672 -33.238328,-0.553672 -33.792,0 -0.556802,0.5568026 -0.556802,60.4351977 0,60.9920007 0.289647,0.289648 4.847276,0.384 18.548741,0.384 17.609678,0 18.17483,0.01885 18.494853,0.616819 0.181561,0.339248 0.243222,0.843248 0.137024,1.12 -0.172724,0.450109 -2.23993,0.501898 -19.598854,0.491008 C 3.855801,70.697578 0.737017,70.624118 0.400004,70.241335 Z M 43.52,13.350756 c 0,-0.63059 -4.047066,-4.4983239 -4.447766,-4.2506781 -0.475792,0.294057 -0.449789,3.7943671 0.03177,4.2759221 0.538726,0.538726 4.416,0.516561 4.416,-0.02524 z m 2.24,57.076711 c 0,-0.160896 -2.424758,-1.67618 -5.388355,-3.367303 -6.092976,-3.476848 -7.881389,-5.026246 -9.429308,-8.169123 L 29.92,56.815303 29.814376,46.043745 29.708752,35.272186 30.445578,34.756093 c 0.475842,-0.333293 1.420007,-0.518864 2.665625,-0.523917 4.030285,-0.01635 8.020144,-1.684451 11.420576,-4.774796 1.17248,-1.065559 2.234128,-1.93738 2.359223,-1.93738 0.125094,0 1.153011,0.865826 2.284265,1.924057 3.325056,3.110427 7.354538,4.795943 11.465427,4.795943 0.951056,0 2.095968,0.167114 2.54425,0.371367 L 64,34.98273 v 10.668637 c 0,5.940999 -0.12497,10.668634 -0.282013,10.668634 -0.155104,0 -0.436419,0.613219 -0.625145,1.362713 -0.437543,1.737639 -1.995498,4.0929 -3.636506,5.497543 -0.704368,0.602912 -3.606195,2.420413 -6.448502,4.038893 -2.842308,1.61848 -5.215834,3.068275 -5.2745,3.221769 C 47.590963,70.813412 45.76,70.800929 45.76,70.427469 Z m 6.432701,-5.067466 c 5.321078,-3.040925 7.342697,-4.750797 8.607299,-7.28 0.792941,-1.585885 0.800787,-1.684698 0.889062,-11.2 0.04915,-5.297463 -0.03949,-9.792976 -0.197782,-10.030576 C 61.325763,36.600973 60.193923,36.305524 58.815408,36.150929 54.784454,35.698877 51.459811,34.259008 48.467923,31.669547 47.621888,30.93731 46.831376,30.488708 46.615917,30.618568 46.409162,30.74318 45.52,31.413857 44.64,32.10896 43.76,32.804064 42.048512,33.849943 40.836691,34.433136 38.753853,35.435508 37.520666,35.775092 33.76,36.38185 l -1.6,0.258151 -0.08488,9.595804 c -0.07514,8.495578 -0.0201,9.778157 0.48,11.186212 0.942627,2.653945 3.115478,4.606393 8.72488,7.839872 2.728,1.572525 5.19697,2.867907 5.486598,2.878624 0.289629,0.01072 2.731376,-1.240512 5.426103,-2.780512 z m -9.038714,-3.381187 c -3.657139,-1.24656 -6.166304,-3.461584 -7.707869,-6.804304 -0.617452,-1.338884 -0.725001,-2.10128 -0.718665,-5.094509 0.0068,-3.228896 0.08184,-3.662448 0.906925,-5.242493 1.315516,-2.519229 3.41143,-4.593021 5.890624,-5.828458 1.959305,-0.976365 2.416528,-1.074569 5.034998,-1.081465 2.064858,-0.0054 3.332858,0.163968 4.48,0.598531 8.336653,3.158105 10.806819,13.579005 4.752912,20.05112 -1.873517,2.002941 -3.504976,2.979555 -6.079101,3.639037 -2.635533,0.675209 -4.030374,0.62472 -6.559824,-0.237459 z m 8.242106,-2.556026 c 1.949107,-0.987686 4.090608,-3.254102 4.981885,-5.272483 0.939001,-2.126455 0.940601,-5.75233 0.0035,-7.856493 -1.35328,-3.038541 -3.876628,-5.20336 -7.12874,-6.115856 -2.412115,-0.676807 -4.319705,-0.467299 -6.90776,0.758669 -8.201126,3.884899 -7.559798,15.91208 1.012583,18.989488 2.268893,0.814512 5.884717,0.588112 8.038563,-0.503325 z M 45.07295,55.488471 c -2.110892,-1.862128 -2.224361,-2.031849 -1.839363,-2.751229 0.397088,-0.741964 0.965091,-0.730636 1.943213,0.03875 0.43071,0.338797 0.939638,0.518797 1.13095,0.4 0.191312,-0.118796 0.798909,-1.799993 1.350212,-3.735993 0.551305,-1.936 1.13871,-3.844 1.305344,-4.24 0.3492,-0.829853 1.520124,-0.971882 1.808873,-0.219412 0.274141,0.714394 -2.764723,10.913473 -3.431517,11.516913 -0.511334,0.462752 -0.688854,0.383763 -2.267712,-1.009031 z m -40.157229,9.95153 c -0.101307,-0.264 -0.10058,-0.697894 0.0016,-0.964211 0.161763,-0.421546 1.605273,-0.473312 11.154236,-0.4 l 10.968411,0.08421 0.101255,0.88 0.101255,0.88 H 16.171182 C 6.625225,65.92 5.074507,65.85387 4.915691,65.440001 Z m 0.101746,-4.2092 c -0.320502,-0.320503 -0.264356,-1.324051 0.0862,-1.540704 0.22788,-0.140839 13.016131,-0.244554 21.557589,-0.174842 0.44447,0.0036 0.557427,0.211834 0.48,0.884746 l -0.101255,0.88 -10.902533,0.08413 C 10.141074,61.410411 5.137075,61.350411 5.017467,61.230801 Z M 4.900646,56.440718 c -0.111375,-0.29024 -0.07008,-0.737642 0.09177,-0.994231 0.248671,-0.394227 1.95502,-0.463385 11.010927,-0.446285 5.894159,0.01114 10.834217,0.02464 10.977907,0.03002 0.143691,0.0054 0.215691,0.40578 0.16,0.88978 l -0.101255,0.879999 -10.968427,0.08421 C 6.128516,56.960551 5.08421,56.919091 4.900641,56.440717 Z m 0.01669,-13.716506 c -0.102195,-0.266317 -0.102922,-0.700211 -0.0016,-0.964211 0.158816,-0.413869 1.709535,-0.48 11.255491,-0.48 h 11.071299 l -0.101256,0.88 -0.101239,0.88 -10.968427,0.08421 c -9.548964,0.07331 -10.992474,0.02154 -11.154237,-0.4 z m 0.10013,-4.213411 C 4.6067,38.100036 4.800319,36.868349 5.306171,36.674237 c 0.784514,-0.301046 21.038812,-0.219308 21.521826,0.08685 0.235398,0.149209 0.379398,0.615004 0.32,1.0351 l -0.107998,0.763814 -10.902533,0.08413 c -5.996394,0.04627 -11.000393,-0.01373 -11.12,-0.133334 z m 0.154536,-4.551889 c -0.235399,-0.149209 -0.379399,-0.615004 -0.32,-1.0351 L 4.959999,32.16 h 11.04 11.04 l 0.107997,0.763812 c 0.0594,0.420096 -0.0846,0.885891 -0.32,1.0351 -0.558882,0.35425 -21.097112,0.35425 -21.655994,0 z M 4.916973,28.963267 c -0.101995,-0.265797 -0.101995,-0.700737 0,-0.966533 0.162279,-0.422891 1.995578,-0.472865 14.674237,-0.4 l 14.488789,0.08327 v 0.8 0.8 l -14.488789,0.08327 c -12.678659,0.07287 -14.511958,0.02289 -14.674237,-0.4 z M 4.915673,24.48 c -0.101307,-0.264 -0.101307,-0.696 0,-0.96 0.159956,-0.41684 2.081622,-0.48 14.604279,-0.48 12.576611,0 14.443834,0.06189 14.605843,0.484076 0.102167,0.266241 0.008,0.698241 -0.209225,0.96 -0.598093,0.720659 -28.724307,0.716707 -29.000897,-0.0041 z m 0.284279,-4.210208 c -0.484446,-0.197564 -0.530451,-1.271398 -0.06675,-1.557983 0.604937,-0.373872 28.526644,-0.219912 28.905943,0.159387 0.248557,0.248559 0.248221,0.502126 -0.0013,0.897612 -0.319427,0.506501 -1.486407,0.55577 -14.392809,0.607651 -7.724749,0.03105 -14.225088,-0.01695 -14.445088,-0.106667 z M 6.305581,11.059915 C 5.600776,10.35511 5.976319,9.2799999 6.927317,9.2799999 c 0.878853,0 1.327311,0.8047191 0.860701,1.5444491 C 7.335,11.542631 6.863232,11.617566 6.305581,11.059915 Z m 4.626374,0.178996 c -0.235399,-0.149208 -0.379399,-0.615004 -0.32,-1.0351 0.08096,-0.5725991 0.308268,-0.7638111 0.907997,-0.7638111 0.599729,0 0.827036,0.191212 0.907997,0.7638111 0.09234,0.653056 -0.361757,1.306389 -0.907997,1.306389 -0.088,0 -0.352599,-0.12208 -0.587997,-0.271289 z M 15.423952,11.136 c -0.568132,-0.568132 -0.466171,-1.4695051 0.206977,-1.8297641 0.406603,-0.2176067 0.706107,-0.201152 0.96,0.05274 0.536051,0.536051 0.452049,1.7406901 -0.137149,1.9667871 -0.644465,0.247304 -0.58108,0.258984 -1.029828,-0.189763 z m 4.21172,-0.416 c -0.101306,-0.264 -0.101306,-0.696 0,-0.9600001 0.155992,-0.406506 1.260333,-0.48 7.212673,-0.48 6.736906,0 7.036868,0.02643 7.230698,0.637137 0.111219,0.3504251 0.112426,0.7824251 0.0026,0.9599991 C 33.957312,11.078438 31.234855,11.2 26.851023,11.2 c -5.954721,0 -7.059356,-0.07349 -7.215351,-0.48 z"
     id="path205"
     inkscape:connector-curvature="0" />
</svg>
