<?xml version="1.0" encoding="UTF-8" standalone="no"?>
<!-- Created with Inkscape (http://www.inkscape.org/) -->

<svg
   xmlns:dc="http://purl.org/dc/elements/1.1/"
   xmlns:cc="http://creativecommons.org/ns#"
   xmlns:rdf="http://www.w3.org/1999/02/22-rdf-syntax-ns#"
   xmlns:svg="http://www.w3.org/2000/svg"
   xmlns="http://www.w3.org/2000/svg"
   xmlns:sodipodi="http://sodipodi.sourceforge.net/DTD/sodipodi-0.dtd"
   xmlns:inkscape="http://www.inkscape.org/namespaces/inkscape"
   version="1.1"
   id="svg151"
   width="64.007881"
   height="59.05722"
   viewBox="0 0 64.007881 59.057221"
   sodipodi:docname="bestceller-icon.svg"
   inkscape:version="0.92.4 (unknown)">
  <path
     style="fill:#fff;stroke-width:0.31999999"
     d="m 12.550375,58.949978 c -1.068242,-0.430365 -1.011428,-1.30897 0.723198,-11.183869 l 1.736045,-9.882979 -0.902932,-0.8 c -0.496614,-0.44 -3.875119,-3.593261 -7.5077889,-7.007249 -6.81704499,-6.406664 -7.26519899,-7.006693 -6.10199799,-8.169894 0.276572,-0.276572 0.61305799,-0.502858 0.74774699,-0.502858 0.729412,0 20.0193219,-2.923259 20.1496029,-3.05354 0.08525,-0.08525 2.191259,-4.149075 4.680025,-9.0307284 3.799023,-7.4516884 4.663696,-8.9245393 5.389307,-9.17993516 0.695837,-0.24491625 0.983936,-0.1825509 1.478256,0.31999996 0.337687,0.3433116 2.57809,4.440203 4.978675,9.1042032 2.400586,4.6640004 4.461184,8.5774204 4.579114,8.6964904 0.11793,0.119069 4.678416,0.821373 10.134416,1.560676 5.631053,0.763023 10.231296,1.537319 10.64,1.790887 1.589158,0.985943 1.128368,1.6034 -6.801568,9.114067 -4.993875,4.729842 -7.472454,7.290911 -7.375424,7.620885 0.27745,0.943546 3.376992,18.571684 3.376992,19.206097 0,0.349881 -0.376874,0.883085 -0.837501,1.184896 -0.834141,0.54655 -0.875184,0.529814 -10.238406,-4.175315 l -9.400909,-4.724071 -9.084392,4.662695 c -8.765919,4.499232 -9.479047,4.805443 -10.362459,4.449542 z m 11.569728,-8.957776 8.029757,-4.050928 7.956262,4.070089 c 4.375946,2.238548 8.016448,4.009905 8.090006,3.936346 0.07356,-0.07356 -0.53319,-3.827133 -1.348329,-8.34128 -0.846416,-4.687344 -1.388643,-8.515437 -1.264234,-8.925421 0.119811,-0.394832 3.000311,-3.309878 6.401107,-6.477878 3.400797,-3.168001 6.198141,-5.838654 6.21632,-5.934786 0.01818,-0.09613 -3.848432,-0.71015 -8.592467,-1.364485 -4.744035,-0.654336 -8.85511,-1.277804 -9.135721,-1.385485 -0.280612,-0.10768 -0.951716,-1.077662 -1.491344,-2.155514 -0.539626,-1.077852 -2.355015,-4.608623 -4.034199,-7.846158 L 31.894196,5.6302743 27.935915,13.506577 c -4.645501,9.243752 -2.854733,8.003813 -13.701873,9.487264 -4.048,0.553604 -7.6178279,1.107272 -7.9329519,1.230375 -0.46145,0.180265 0.682689,1.401593 5.8791519,6.275785 l 6.452105,6.051961 -0.184687,1.625584 c -0.101578,0.89407 -0.746971,4.829584 -1.434206,8.745584 -0.687235,3.916 -1.176076,7.12 -1.086312,7.12 0.08976,0 3.776596,-1.822919 8.192961,-4.050928 z"
     id="path161"
     inkscape:connector-curvature="0" />
</svg>
