<?xml version="1.0" encoding="UTF-8" standalone="no"?>
<!-- Created with Inkscape (http://www.inkscape.org/) -->

<svg
   xmlns:dc="http://purl.org/dc/elements/1.1/"
   xmlns:cc="http://creativecommons.org/ns#"
   xmlns:rdf="http://www.w3.org/1999/02/22-rdf-syntax-ns#"
   xmlns:svg="http://www.w3.org/2000/svg"
   xmlns="http://www.w3.org/2000/svg"
   xmlns:sodipodi="http://sodipodi.sourceforge.net/DTD/sodipodi-0.dtd"
   xmlns:inkscape="http://www.inkscape.org/namespaces/inkscape"
   version="1.1"
   id="svg251"
   width="63.93129"
   height="63.92453"
   viewBox="0 0 63.93129 63.92453"
   sodipodi:docname="discount-icon.svg"
   inkscape:version="0.92.4 (unknown)">
  <path
     style="fill:#fff;stroke-width:0.31999999"
     d="m 44.887362,63.653291 c -4.900528,-0.976995 -8.621334,-3.830179 -10.583158,-8.115366 -2.502699,-5.466615 -1.495668,-11.575789 2.61927,-15.889872 2.945571,-3.088125 6.481274,-4.461856 11.483888,-4.461856 4.761312,0 7.912214,1.147981 11.001696,4.008294 8.449382,7.82264 4.443533,21.906941 -6.915357,24.313939 -2.332099,0.494183 -5.547056,0.555412 -7.606339,0.144861 z m 7.382675,-7.156537 c 2.861479,-1.332439 4.304557,-3.77954 4.290298,-7.27528 -0.012,-2.938474 -1.492141,-5.310586 -4.192557,-6.719044 -1.105549,-0.576624 -1.93944,-0.733936 -3.960416,-0.747123 -2.247693,-0.01466 -2.765626,0.09722 -4.24552,0.917155 -5.753046,3.187472 -5.030733,11.92921 1.168742,14.14466 1.933645,0.691008 5.079351,0.545782 6.939453,-0.320368 z M 3.8052412,58.104242 C 3.5273932,57.769454 3.6467852,57.417822 4.3260592,56.570331 6.5891912,53.746754 51.270053,6.3094589 51.87733,6.0855482 52.256847,5.9456151 54.061967,5.7431968 55.888706,5.63573 c 3.37599,-0.198609 4.518656,0.028248 4.518656,0.897103 0,0.6379696 -46.839145,50.925466 -47.98554,51.518289 -1.272337,0.657952 -8.0797858,0.699916 -8.6165808,0.05312 z M 12.407362,29.204255 C 11.004357,28.981198 7.8102492,27.752699 6.5268592,26.94253 -0.45970878,22.5321 -2.1286188,12.695307 2.9412442,5.8083818 c 5.13225,-6.971668 17.2470888,-7.8288061 23.9431798,-1.6940061 3.162313,2.8972368 5.045412,7.8064743 4.579358,11.9383973 -0.91102,8.076914 -7.315323,13.455772 -15.85642,13.317519 -1.32,-0.02137 -2.76,-0.09608 -3.2,-0.166037 z m 6.522874,-7.216798 c 1.731892,-0.514316 4.091667,-2.874091 4.605983,-4.605983 C 24.770472,13.22528 22.898968,8.9933751 19.127362,7.4120237 17.689471,6.8091476 14.583875,6.7542103 12.681371,7.2979959 7.2525382,8.8496976 5.5019022,16.037846 9.5636172,20.099561 c 0.7021768,0.702177 1.8812738,1.490847 2.6202158,1.752599 1.663696,0.589325 4.992707,0.656087 6.746403,0.135297 z"
     id="path261"
     inkscape:connector-curvature="0" />
</svg>
