<?xml version="1.0" encoding="UTF-8" standalone="no"?>
<!-- Created with Inkscape (http://www.inkscape.org/) -->

<svg
   xmlns:dc="http://purl.org/dc/elements/1.1/"
   xmlns:cc="http://creativecommons.org/ns#"
   xmlns:rdf="http://www.w3.org/1999/02/22-rdf-syntax-ns#"
   xmlns:svg="http://www.w3.org/2000/svg"
   xmlns="http://www.w3.org/2000/svg"
   xmlns:sodipodi="http://sodipodi.sourceforge.net/DTD/sodipodi-0.dtd"
   xmlns:inkscape="http://www.inkscape.org/namespaces/inkscape"
   version="1.1"
   id="svg241"
   width="63.971424"
   height="63.48238"
   viewBox="0 0 63.971424 63.48238"
   sodipodi:docname="stock-icon.svg"
   inkscape:version="0.92.4 (unknown)">
  <path
     style="fill:#fff;stroke-width:0.31999999"
     d="M 23.032484,62.667166 C 20.160817,61.818478 16.125563,59.915994 13.792609,58.310881 11.77343,56.921649 8.1300809,53.416442 6.4903689,51.285511 -0.80464111,41.805102 -2.0809411,28.14227 3.3267499,17.418868 5.5210479,13.067594 9.9285659,7.9853865 13.844369,5.2912445 16.096246,3.7419115 20.981905,1.5098397 23.858086,0.71635689 25.958585,0.13686999 27.264998,0.01935279 31.811425,9.2189224e-4 38.351012,-0.02558911 40.795127,0.50808839 46.051425,3.1102561 c 1.848,0.9148656 3.451069,1.7069234 3.562378,1.7601284 0.111305,0.0532 0.735571,-0.629621 1.387254,-1.5173901 1.232205,-1.6786013 1.928461,-2.0099051 2.215306,-1.0541258 1.034153,3.4458329 2.435062,8.8106394 2.435062,9.3251224 0,0.358798 -0.252,0.783023 -0.56,0.942722 -0.915658,0.474773 -9.989968,1.150188 -10.368416,0.771738 -0.222118,-0.222116 0.05996,-0.908773 0.881808,-2.146564 0.999763,-1.5057525 1.128822,-1.8734505 0.747504,-2.1296945 -1.33359,-0.896161 -4.289994,-2.229794 -6.700896,-3.022774 -2.478934,-0.815356 -3.145411,-0.895747 -7.52,-0.907065 -5.354302,-0.01385 -7.258176,0.358011 -11.239005,2.195205 -3.337616,1.540345 -5.73719,3.2877905 -8.440995,6.1470025 -3.4093731,3.605333 -5.2397541,6.91211 -6.6328961,11.983026 -0.770042,2.802887 -0.764798,9.855979 0.0095,12.722561 2.652074,9.81895 9.7439591,17.120432 19.0120901,19.573987 3.206154,0.848768 3.811976,1.164 4.244694,2.208672 0.665265,1.60609 -0.745345,3.556919 -2.54455,3.519027 -0.444839,-0.0094 -2.023321,-0.375968 -3.507739,-0.814668 z m 12.693981,0.193558 c -0.67569,-0.531498 -0.87504,-0.961917 -0.87504,-1.889302 0,-1.754196 1.032794,-2.601812 3.435722,-2.8197 1.782896,-0.16167 1.936953,-0.119388 2.589968,0.710781 0.381868,0.485472 0.689731,1.259255 0.684134,1.71952 -0.01869,1.537309 -1.107622,2.389402 -3.514784,2.750343 -1.199901,0.17992 -1.593363,0.09993 -2.32,-0.471642 z m 9.190416,-3.667312 c -1.442077,-1.442074 -0.954467,-3.193453 1.248544,-4.484502 1.660246,-0.97297 2.733222,-1.026276 3.640659,-0.180868 1.56241,1.455607 1.184,3.194954 -0.995005,4.573495 -1.720678,1.088582 -2.870371,1.115705 -3.894198,0.09188 z m 7.68,-6.4 c -1.05991,-1.059907 -1.002102,-2.313866 0.180813,-3.922384 1.187216,-1.614362 2.374061,-2.100451 3.733197,-1.528976 1.971388,0.828906 1.912262,3.006976 -0.141069,5.196816 -1.224029,1.305402 -2.627408,1.40008 -3.772941,0.254544 z m 5.12,-8.64 c -0.909162,-0.909158 -0.978483,-1.780707 -0.297027,-3.73431 0.596934,-1.711296 1.20207,-2.200234 2.723136,-2.200234 2.05831,0 2.895312,1.670506 2.074781,4.140893 -0.838493,2.52447 -2.934711,3.359833 -4.50089,1.793651 z M 43.171425,41.582951 c -2.552,-1.308057 -6.944,-3.572297 -9.76,-5.031648 l -5.12,-2.65336 V 23.131705 c 0,-10.138285 0.03555,-10.805507 0.609596,-11.439537 0.748513,-0.826734 2.150823,-0.872628 2.855953,-0.09347 0.457465,0.505493 0.535622,1.808091 0.609597,10.16 l 0.08485,9.58017 8.353776,4.32 c 4.594576,2.376 8.590576,4.517632 8.88,4.759181 1.139942,0.951389 0.169421,3.575353 -1.313776,3.552003 -0.308,-0.0049 -2.648,-1.079043 -5.2,-2.387101 z m 16.465456,-7.349539 c -0.65655,-0.656547 -0.783786,-1.089814 -0.77528,-2.64 0.01117,-2.032818 0.398605,-2.780811 1.695904,-3.274043 1.919974,-0.729974 3.41392,0.768926 3.41392,3.425246 0,2.059965 -0.949402,3.274253 -2.56,3.274253 -0.623478,0 -1.27943,-0.290339 -1.774544,-0.785456 z m -1.386947,-9.736036 c -0.330823,-0.330821 -0.843315,-1.329549 -1.138874,-2.219395 -0.485289,-1.461064 -0.490169,-1.709202 -0.05034,-2.559729 0.536259,-1.037013 1.078317,-1.339384 2.401097,-1.339384 1.45786,0 2.90961,2.151389 2.90961,4.311831 0,1.997229 -2.732941,3.195227 -4.121491,1.806677 z"
     id="path301"
     inkscape:connector-curvature="0" />
</svg>
